<svg xmlns="http://www.w3.org/2000/svg" xmlns:xlink="http://www.w3.org/1999/xlink" preserveAspectRatio="xMidYMid" width="612" height="774" viewBox="0 0 612 774">
  <defs>
    <style>
      .cls-1 {
        fill: #000;
        fill-rule: evenodd;
      }
    </style>
  </defs>
  <path d="M566.634,230.241 L566.634,721.673 C566.634,751.330 543.518,774.000 513.851,774.000 L98.149,774.000 C68.482,774.000 45.803,751.330 45.803,721.673 L45.803,230.241 L-0.000,230.241 L-0.000,182.276 L-0.000,143.903 C-0.000,114.246 23.116,91.138 52.783,91.138 L156.599,91.138 L156.599,23.982 C156.599,10.465 167.068,-0.000 180.589,-0.000 L182.339,-0.000 L184.079,-0.000 L427.046,-0.000 C427.483,-0.000 428.358,0.437 428.795,0.874 C429.224,0.437 430.098,-0.000 431.410,-0.000 C444.932,-0.000 455.838,10.465 455.838,23.982 L455.838,91.138 L559.217,91.138 C588.875,91.138 612.000,114.246 612.000,143.903 L612.000,182.276 L612.000,230.241 L566.634,230.241 ZM93.784,721.673 C93.784,724.733 95.097,726.036 98.149,726.036 L513.851,726.036 C516.903,726.036 518.215,724.733 518.215,721.673 L518.215,230.241 L93.784,230.241 L93.784,721.673 ZM407.420,47.964 L204.580,47.964 L204.580,91.138 L407.420,91.138 L407.420,47.964 ZM563.582,143.903 C563.582,140.851 562.269,139.102 559.217,139.102 L52.783,139.102 C49.730,139.102 48.418,140.851 48.418,143.903 L48.418,182.276 L563.582,182.276 L563.582,143.903 ZM393.898,286.494 L442.317,286.494 L442.317,683.299 L393.898,683.299 L393.898,286.494 ZM282.228,286.494 L330.646,286.494 L330.646,683.299 L282.228,683.299 L282.228,286.494 ZM170.558,286.494 L218.976,286.494 L218.976,683.299 L170.558,683.299 L170.558,286.494 Z" class="cls-1"/>
</svg>
