<svg xmlns="http://www.w3.org/2000/svg" xmlns:xlink="http://www.w3.org/1999/xlink" preserveAspectRatio="xMidYMid" width="510" height="510" viewBox="0 0 510 510">
  <defs>
    <style>
      .cls-1 {
        fill: #000;
        fill-rule: evenodd;
      }
    </style>
  </defs>
  <path d="M153.000,408.000 C124.950,408.000 102.000,430.950 102.000,459.000 C102.000,487.050 124.950,510.000 153.000,510.000 C181.050,510.000 204.000,487.050 204.000,459.000 C204.000,430.950 181.050,408.000 153.000,408.000 ZM-0.000,-0.000 L-0.000,51.000 L51.000,51.000 L142.800,244.800 L107.100,306.000 C104.550,313.650 102.000,323.850 102.000,331.500 C102.000,359.550 124.950,382.500 153.000,382.500 L459.000,382.500 L459.000,331.500 L163.200,331.500 C160.650,331.500 158.100,328.950 158.100,326.400 L158.100,323.850 L181.050,280.500 L369.750,280.500 C390.150,280.500 405.450,270.300 413.100,255.000 L504.900,89.250 C510.000,84.150 510.000,81.600 510.000,76.500 C510.000,61.200 499.800,51.000 484.500,51.000 L107.100,51.000 L84.150,-0.000 L-0.000,-0.000 ZM408.000,408.000 C379.950,408.000 357.000,430.950 357.000,459.000 C357.000,487.050 379.950,510.000 408.000,510.000 C436.050,510.000 459.000,487.050 459.000,459.000 C459.000,430.950 436.050,408.000 408.000,408.000 Z" class="cls-1"/>
</svg>
