<svg xmlns="http://www.w3.org/2000/svg" xmlns:xlink="http://www.w3.org/1999/xlink" preserveAspectRatio="xMidYMid" width="89" height="62" viewBox="0 0 89 62">
  <defs>
    <style>
      .cls-1 {
        fill: #000;
        fill-rule: evenodd;
      }
    </style>
  </defs>
  <path d="M79.803,27.560 C84.857,27.143 88.286,24.845 89.606,21.728 C87.782,22.848 82.122,24.069 78.996,22.906 C78.843,22.171 78.672,21.474 78.504,20.844 C76.122,12.100 67.967,5.055 59.422,5.906 C60.113,5.627 60.815,5.367 61.514,5.134 C62.454,4.797 67.973,3.899 67.104,1.952 C66.371,0.239 59.629,3.246 58.359,3.639 C60.035,3.009 62.807,1.925 63.104,-0.000 C60.536,0.352 58.016,1.566 56.068,3.330 C56.771,2.574 57.305,1.651 57.418,0.659 C50.570,5.033 46.570,13.851 43.333,22.405 C40.791,19.942 38.538,18.002 36.517,16.925 C30.847,13.885 24.068,10.714 13.426,6.764 C13.099,10.284 15.167,14.965 21.126,18.078 C19.835,17.905 17.474,18.290 15.586,18.742 C16.355,22.775 18.866,26.098 25.665,27.705 C22.558,27.910 20.952,28.617 19.497,30.140 C20.912,32.945 24.365,36.246 30.577,35.568 C23.671,38.544 27.761,44.057 33.381,43.234 C23.794,53.133 8.679,52.407 0.000,44.126 C22.661,75.000 71.921,62.385 79.262,32.647 C84.761,32.695 87.995,30.743 90.000,28.592 C86.831,29.129 82.239,28.574 79.803,27.560 Z" class="cls-1"/>
</svg>
