<svg xmlns="http://www.w3.org/2000/svg" xmlns:xlink="http://www.w3.org/1999/xlink" preserveAspectRatio="xMidYMid" width="77.406" height="100" viewBox="0 0 77.406 100">
  <defs>
    <style>
      .cls-1 {
        fill: #000;
        fill-rule: evenodd;
      }
    </style>
  </defs>
  <path d="M31.987,66.139 C29.361,79.906 26.154,93.106 16.654,100.000 C13.722,79.192 20.961,63.565 24.322,46.973 C18.592,37.327 25.011,17.911 37.099,22.696 C51.972,28.581 24.218,58.561 42.849,62.307 C62.303,66.215 70.244,28.555 58.181,16.307 C40.754,-1.377 7.448,15.904 11.544,41.223 C12.540,47.414 18.935,49.291 14.099,57.834 C2.945,55.362 -0.385,46.564 0.044,34.834 C0.734,15.637 17.294,2.195 33.904,0.336 C54.910,-2.016 74.625,8.047 77.347,27.807 C80.413,50.110 67.867,74.266 45.404,72.528 C39.316,72.055 36.759,69.039 31.987,66.139 Z" class="cls-1"/>
</svg>
