<svg xmlns="http://www.w3.org/2000/svg"><defs><style>svg svg { display: none; } svg svg:target { display: inline; }</style></defs><svg id="social-twitter-bg" preserveAspectRatio="xMidYMid" viewBox="0 0 89 62"><path d="M79.803 27.56c5.054-.417 8.483-2.715 9.803-5.832-1.824 1.12-7.484 2.341-10.61 1.178a38.41 38.41 0 0 0-.492-2.062C76.122 12.1 67.967 5.055 59.422 5.906a36.1 36.1 0 0 1 2.092-.772c.94-.337 6.459-1.235 5.59-3.182-.733-1.713-7.475 1.294-8.745 1.687 1.676-.63 4.448-1.714 4.745-3.639-2.568.352-5.088 1.566-7.036 3.33.703-.756 1.237-1.679 1.35-2.671C50.57 5.033 46.57 13.851 43.333 22.405c-2.542-2.463-4.795-4.403-6.816-5.48-5.67-3.04-12.449-6.211-23.091-10.161-.327 3.52 1.741 8.201 7.7 11.314-1.291-.173-3.652.212-5.54.664.769 4.033 3.28 7.356 10.079 8.963-3.107.205-4.713.912-6.168 2.435 1.415 2.805 4.868 6.106 11.08 5.428-6.906 2.976-2.816 8.489 2.804 7.666-9.587 9.899-24.702 9.173-33.381.892C22.661 75 71.921 62.385 79.262 32.647c5.499.048 8.733-1.904 10.738-4.055-3.169.537-7.761-.018-10.197-1.032z" fill="#f02"/></svg><svg id="people-bg" preserveAspectRatio="xMidYMid" viewBox="0 0 383 452"><defs/><path d="M352 452H32c-17.687 0-32-14.313-32-32v-36c0-53.031 43-96 96-96h16c0 44.187 35.813 80 80 80 44.188 0 80-35.813 80-80h16c53.063 0 96 42.969 96 96v36c0 17.687-14.313 32-32 32zM211.375 254.047C255.125 245.094 288 206.406 288 160c0-4.781-.687-9.344-1.375-13.938-22.75 9.109-57.812 4.406-90.875-14.672-25.219-14.578-43.531-34.328-52.5-53.656C115.094 94.469 96 124.859 96 160c0 46.406 32.938 85.094 76.656 94.047C111.25 244.656 64 192.063 64 128 64 57.313 121.344 0 192 0c70.688 0 128 57.313 128 128 0 64.063-47.187 116.656-108.625 126.047z" class="cls-1"/></svg></svg>