<svg xmlns="http://www.w3.org/2000/svg" xmlns:xlink="http://www.w3.org/1999/xlink" preserveAspectRatio="xMidYMid" width="383" height="452" viewBox="0 0 383 452">
  <defs>
    <style>
      .cls-1 {
        fill: #000;
        fill-rule: evenodd;
      }
    </style>
  </defs>
  <path d="M352.000,452.000 L32.000,452.000 C14.313,452.000 0.000,437.687 0.000,420.000 L0.000,384.000 C0.000,330.969 43.000,288.000 96.000,288.000 L112.000,288.000 C112.000,332.187 147.813,368.000 192.000,368.000 C236.188,368.000 272.000,332.187 272.000,288.000 L288.000,288.000 C341.063,288.000 384.000,330.969 384.000,384.000 L384.000,420.000 C384.000,437.687 369.687,452.000 352.000,452.000 ZM211.375,254.047 C255.125,245.094 288.000,206.406 288.000,160.000 C288.000,155.219 287.313,150.656 286.625,146.062 C263.875,155.171 228.813,150.468 195.750,131.390 C170.531,116.812 152.219,97.062 143.250,77.734 C115.094,94.469 96.000,124.859 96.000,160.000 C96.000,206.406 128.938,245.094 172.656,254.047 C111.250,244.656 64.000,192.063 64.000,128.000 C64.000,57.313 121.344,-0.000 192.000,-0.000 C262.688,-0.000 320.000,57.313 320.000,128.000 C320.000,192.063 272.813,244.656 211.375,254.047 Z" class="cls-1"/>
</svg>
