<svg xmlns="http://www.w3.org/2000/svg" xmlns:xlink="http://www.w3.org/1999/xlink" preserveAspectRatio="xMidYMid" width="612" height="612" viewBox="0 0 612 612">
  <defs>
    <style>
      .cls-1 {
        fill: #000;
        fill-rule: evenodd;
      }
    </style>
  </defs>
  <path d="M597.029,524.702 L464.074,391.749 C463.367,391.042 462.538,390.549 461.800,389.891 C487.961,350.206 503.230,302.703 503.230,251.618 C503.230,112.652 390.578,-0.000 251.615,-0.000 C112.652,-0.000 -0.000,112.652 -0.000,251.615 C-0.000,390.575 112.650,503.230 251.613,503.230 C302.701,503.230 350.202,487.961 389.886,461.800 C390.544,462.536 391.035,463.365 391.742,464.071 L524.700,597.029 C544.673,617.000 577.054,617.000 597.029,597.029 C617.000,577.056 617.000,544.675 597.029,524.702 ZM251.615,416.003 C160.823,416.003 87.225,342.404 87.225,251.615 C87.225,160.823 160.826,87.225 251.615,87.225 C342.402,87.225 416.003,160.826 416.003,251.615 C416.003,342.404 342.402,416.003 251.615,416.003 Z" class="cls-1"/>
</svg>
