<svg xmlns="http://www.w3.org/2000/svg" xmlns:xlink="http://www.w3.org/1999/xlink" preserveAspectRatio="xMidYMid" width="52" height="96" viewBox="0 0 52 96">
  <defs>
    <style>
      .cls-1 {
        fill: #000;
        fill-rule: evenodd;
      }
    </style>
  </defs>
  <path d="M50.041,0.019 L37.568,-0.001 C23.557,-0.001 14.503,9.272 14.503,23.625 L14.503,34.518 L1.962,34.518 C0.878,34.518 0.001,35.395 0.001,36.477 L0.001,52.260 C0.001,53.342 0.879,54.218 1.962,54.218 L14.502,54.218 L14.502,94.044 C14.502,95.125 15.379,96.001 16.463,96.001 L32.824,96.001 C33.907,96.001 34.785,95.124 34.785,94.044 L34.785,54.218 L49.447,54.218 C50.531,54.218 51.408,53.342 51.408,52.260 L51.414,36.477 C51.414,35.958 51.207,35.460 50.840,35.093 C50.472,34.725 49.972,34.518 49.452,34.518 L34.786,34.518 L34.786,25.284 C34.786,20.846 35.845,18.592 41.637,18.592 L50.039,18.589 C51.122,18.589 51.999,17.712 51.999,16.632 L51.999,1.976 C51.999,0.897 51.123,0.021 50.041,0.019 Z" class="cls-1"/>
</svg>
