<svg xmlns="http://www.w3.org/2000/svg" xmlns:xlink="http://www.w3.org/1999/xlink" preserveAspectRatio="xMidYMid" width="94" height="97" viewBox="0 0 94 97">
  <defs>
    <style>
      .cls-1 {
        fill: #000;
        fill-rule: evenodd;
      }
    </style>
  </defs>
  <path d="M93.502,51.618 L81.351,51.618 L81.351,63.843 C81.351,64.120 81.128,64.344 80.852,64.344 L75.625,64.344 C75.349,64.344 75.125,64.120 75.125,63.843 L75.125,51.619 L63.037,51.619 C62.761,51.619 62.537,51.394 62.537,51.118 L62.537,45.805 C62.537,45.528 62.761,45.304 63.037,45.304 L75.125,45.304 L75.125,33.158 C75.125,32.881 75.349,32.657 75.625,32.657 L80.852,32.657 C81.128,32.657 81.351,32.881 81.351,33.158 L81.351,45.304 L93.502,45.304 C93.779,45.304 94.001,45.527 94.001,45.805 L94.001,51.117 C94.001,51.393 93.778,51.618 93.502,51.618 ZM54.858,5.083 C54.779,5.135 54.686,5.161 54.593,5.161 L46.940,5.161 C49.837,7.564 55.865,12.564 55.865,22.238 C55.865,31.861 50.236,36.310 45.270,40.234 L45.107,40.399 C43.545,41.958 41.776,43.725 41.776,46.402 C41.776,49.125 43.545,50.595 44.966,51.776 L49.565,55.364 C55.016,59.969 60.152,64.307 60.149,73.093 C60.149,84.972 48.779,96.998 27.050,96.998 C8.363,96.998 -0.002,87.911 -0.002,78.906 C-0.002,76.644 0.697,68.841 9.692,63.476 C17.307,58.779 27.732,58.063 33.333,57.678 L33.723,57.651 L33.504,57.368 C31.757,55.128 29.951,52.811 29.951,49.054 C29.951,47.125 30.467,45.889 31.012,44.578 L31.200,44.121 C29.926,44.240 28.482,44.374 27.178,44.374 C13.614,44.374 6.294,34.139 6.294,24.508 C6.294,18.257 9.299,11.924 14.334,7.567 C20.736,2.262 27.849,0.002 38.124,0.002 L61.183,0.002 C61.406,0.002 61.602,0.149 61.662,0.363 C61.724,0.578 61.637,0.807 61.449,0.926 L54.858,5.083 ZM21.884,63.234 C14.715,65.840 11.076,70.222 11.076,76.254 C11.076,85.491 19.975,91.697 33.220,91.697 C44.631,91.697 51.721,86.462 51.722,78.033 C51.722,71.416 47.266,67.942 37.998,61.326 C36.996,61.200 36.365,61.200 35.109,61.200 C35.035,61.200 27.625,61.296 21.884,63.234 ZM28.944,4.781 C25.611,4.781 22.152,6.419 20.132,8.954 C18.270,11.267 17.366,14.331 17.366,18.322 C17.366,26.170 21.979,40.829 33.095,40.829 C36.099,40.829 39.537,39.407 41.651,37.291 C44.795,34.120 44.795,29.555 44.795,28.055 C44.795,18.543 39.151,4.781 28.944,4.781 Z" class="cls-1"/>
</svg>
